<svg xmlns="http://www.w3.org/2000/svg" width="32" height="32" viewBox="0 0 32 32" fill="none" class="injected-svg sa-icon-svg" data-src="/icons/rebirth-event-32.svg" xmlns:xlink="http://www.w3.org/1999/xlink">
<g id="Menu/ReBirth Event">
<g id="Background-Fill">
<path id="Path-288" fill-rule="evenodd" clip-rule="evenodd" d="M16 20C11.0294 20 7 15.9706 7 11C7 8.54415 7.98364 6.31804 9.57844 4.69416C5.64951 6.93054 3 11.1559 3 16C3 23.1797 8.8203 29 16 29C23.1797 29 29 23.1797 29 16C29 11.1559 26.3505 6.93054 22.4216 4.69415C24.0164 6.31803 25 8.54415 25 11C25 15.9706 20.9706 20 16 20Z" fill="white"></path>
<path id="Path_2-289" d="M19.54 11.512C19.2026 10.5674 18.4155 9.85387 17.4424 9.6106L11 8L14.4305 11.8594C14.7942 12.2685 14.9743 12.8087 14.9288 13.3542L14.8395 14.426C14.6347 16.8839 12.9467 18.966 10.5843 19.6747L9.5 20L20 24L20.9042 19.7806C21.2937 17.9629 21.1688 16.0726 20.5436 14.3219L19.54 11.512Z" fill="white"></path>
</g>
</g>
</svg>